<?xml version="1.0" encoding="UTF-8"?>
<!DOCTYPE svg PUBLIC "-//W3C//DTD SVG 1.1//EN" "http://www.w3.org/Graphics/SVG/1.1/DTD/svg11.dtd">
<!-- Creator: CorelDRAW X5 -->
<svg xmlns="http://www.w3.org/2000/svg" xml:space="preserve" width="51.5846mm" height="51.5864mm" shape-rendering="geometricPrecision" text-rendering="geometricPrecision" image-rendering="optimizeQuality" fill-rule="evenodd" clip-rule="evenodd"
viewBox="0 0 4291 4291"
 xmlns:xlink="http://www.w3.org/1999/xlink">
 <g id="Capa_x0020_1">
  <metadata id="CorelCorpID_0Corel-Layer"/>
  <path fill="#EC268F" d="M951 1320c-89,52 -149,135 -174,227 -25,92 -14,194 37,284l0 0 0 0c51,89 134,149 227,174 93,25 194,14 284,-37l0 0c89,-51 149,-134 174,-227 25,-92 14,-194 -37,-284l0 0c-51,-89 -134,-149 -227,-174 -93,-25 -194,-14 -284,37l0 0zm122 -1033c708,-409 1551,-368 2201,33l-1721 994c-72,-91 -171,-154 -278,-182 -131,-35 -275,-20 -402,53l0 0c-127,73 -212,191 -247,322 -35,131 -20,275 53,402l5 9 1 1c74,121 188,203 316,237 131,35 275,20 402,-53l10 -6 0 0c121,-74 203,-188 237,-316 29,-107 24,-224 -19,-332l1787 -1032c232,170 433,390 586,655 153,265 243,549 275,835l-1787 1032c-72,-91 -171,-154 -278,-182 -131,-35 -275,-20 -402,53l0 0c-127,73 -212,191 -247,322 -35,131 -20,275 53,402l5 9 1 1c74,121 188,203 316,237 131,35 275,20 402,-53l10 -6 0 0c121,-74 203,-188 237,-316 29,-107 24,-224 -19,-332l1721 -994c22,763 -364,1514 -1072,1922 -1003,579 -2280,256 -2890,-718l2366 -1366c72,91 171,154 278,182 131,35 275,20 402,-53l10 -6 0 0c121,-74 203,-188 237,-316 35,-131 20,-275 -53,-402l0 0c-73,-127 -191,-212 -322,-247 -131,-35 -275,-20 -402,53l0 0c-127,73 -212,191 -247,322 -29,107 -24,223 19,332l-2366 1366c-539,-1015 -181,-2283 823,-2862zm816 2658c-89,52 -149,135 -174,227 -25,92 -14,194 37,284l0 0 0 0c51,89 134,149 227,174 93,25 194,14 284,-37l0 0c89,-51 149,-134 174,-227 25,-92 14,-194 -37,-284l0 0c-51,-89 -134,-149 -227,-174 -93,-25 -194,-14 -284,37l0 0zm1034 -1680c-89,52 -149,135 -174,227 -25,92 -14,194 37,284l0 0 0 0c51,89 134,149 227,174 93,25 194,14 284,-37l0 0c89,-51 149,-134 174,-227 25,-92 14,-194 -37,-284l0 0c-51,-89 -134,-149 -227,-174 -93,-25 -194,-14 -284,37l0 0z"/>
 </g>
</svg>
