<?xml version="1.0" encoding="UTF-8"?>
<!DOCTYPE svg PUBLIC "-//W3C//DTD SVG 1.1//EN" "http://www.w3.org/Graphics/SVG/1.1/DTD/svg11.dtd">
<!-- Creator: CorelDRAW X5 -->
<svg xmlns="http://www.w3.org/2000/svg" xml:space="preserve" width="66.4382mm" height="53.0801mm" shape-rendering="geometricPrecision" text-rendering="geometricPrecision" image-rendering="optimizeQuality" fill-rule="evenodd" clip-rule="evenodd"
viewBox="0 0 13581 10850"
 xmlns:xlink="http://www.w3.org/1999/xlink">
 <g id="Capa_x0020_1">
  <metadata id="CorelCorpID_0Corel-Layer"/>
  <path fill="#FEFEFE" d="M4752 2252c-152,88 -255,230 -297,387 -42,158 -24,331 63,484l0 0 0 0c88,152 229,254 387,296 158,42 331,25 484,-63l0 0c152,-88 254,-229 296,-387 42,-158 24,-331 -63,-484l0 -1c-88,-152 -229,-254 -387,-296 -158,-42 -332,-25 -484,63l0 0zm208 -1761c1207,-697 2646,-628 3754,56l-2936 1695c-123,-156 -291,-262 -474,-311 -223,-60 -469,-34 -686,91l-1 0c-216,125 -361,325 -421,549 -60,223 -34,470 91,686l9 16 1 1c126,207 321,346 538,404 223,60 469,34 686,-91l17 -10 1 -1c207,-126 346,-321 404,-538 49,-183 41,-381 -32,-566l3048 -1760c395,291 738,666 999,1118 261,452 414,937 468,1424l-3048 1760c-123,-156 -291,-262 -474,-311 -223,-60 -469,-34 -686,91l-1 0c-216,125 -361,325 -421,549 -60,223 -34,470 91,686l9 16 1 1c126,207 321,346 538,404 223,60 469,34 686,-91l17 -10 1 -1c207,-126 346,-321 404,-538 49,-183 41,-381 -32,-566l2936 -1695c38,1302 -622,2582 -1828,3279 -1712,988 -3889,436 -4930,-1225l4036 -2330c123,156 291,262 474,311 223,60 469,34 686,-91l17 -10 1 -1c207,-126 346,-321 404,-538 60,-223 34,-470 -91,-686l0 0c-125,-216 -326,-362 -549,-421 -223,-60 -469,-34 -686,91l-1 0c-216,125 -361,325 -421,549 -49,183 -41,381 32,566l-4036 2330c-919,-1732 -308,-3894 1404,-4882zm1392 4534c-152,88 -255,230 -297,387 -42,158 -24,331 63,484l0 0 0 0c88,152 229,254 387,296 158,42 331,25 484,-63l0 0c152,-88 254,-229 296,-387 42,-158 24,-331 -63,-484l0 -1c-88,-152 -229,-254 -387,-296 -158,-42 -332,-25 -484,63l0 0zm1763 -2866c-152,88 -255,230 -297,387 -42,158 -24,331 63,484l0 0 0 0c88,152 229,254 387,296 158,42 331,25 484,-63l0 0c152,-88 254,-229 296,-387 42,-158 24,-331 -63,-484l0 -1c-88,-152 -229,-254 -387,-296 -158,-42 -332,-25 -484,63l0 0z"/>
  <path fill="#FEFEFE" fill-rule="nonzero" d="M952 10850c-177,0 -317,-50 -419,-150 -102,-100 -154,-251 -154,-453l0 -1580 479 0 0 477 412 0 0 384 -412 0 0 632c0,97 20,166 61,205 40,39 95,59 162,59 35,0 69,-4 103,-13 33,-8 64,-20 92,-35l67 377c-49,27 -108,50 -176,69 -68,19 -141,28 -216,28zm-909 -1322l0 -384 384 0 0 384 -384 0z"/>
  <path id="1" fill="#FEFEFE" fill-rule="nonzero" d="M1685 10801l0 -1657 479 0 0 205c54,-92 123,-157 207,-197 84,-39 176,-59 276,-59 35,0 67,2 97,5 30,4 59,9 87,14l-59 494c-35,-13 -72,-24 -112,-31 -39,-7 -78,-10 -116,-10 -110,0 -201,32 -272,97 -71,65 -107,156 -107,276l0 863 -479 0z"/>
  <path id="12" fill="#FEFEFE" fill-rule="nonzero" d="M3104 10801l0 -1657 477 0 2 1657 -479 0zm240 -1918c-80,-1 -149,-27 -207,-77 -58,-50 -87,-116 -87,-199 0,-84 29,-151 87,-201 58,-50 127,-74 207,-74 80,0 149,25 207,74 58,50 87,117 87,201 0,83 -29,149 -87,199 -58,50 -127,75 -207,77z"/>
  <path id="123" fill="#FEFEFE" fill-rule="nonzero" d="M4049 10801l0 -1657 479 0 0 187c63,-83 139,-143 226,-180 87,-37 178,-56 273,-56 154,0 282,30 382,91 100,61 174,139 223,236 49,96 73,197 73,304l0 1076 -479 0 0 -927c0,-105 -29,-189 -88,-251 -59,-62 -143,-94 -254,-94 -70,0 -132,15 -185,46 -54,31 -95,75 -125,131 -30,56 -45,120 -45,194l0 901 -479 0z"/>
  <path id="1234" fill="#FEFEFE" fill-rule="nonzero" d="M6932 10850c-177,0 -335,-40 -473,-120 -138,-80 -246,-186 -323,-319 -78,-133 -117,-279 -118,-439 0,-117 22,-229 67,-334 45,-106 108,-199 190,-281 82,-81 179,-145 290,-193 112,-47 234,-71 366,-71 179,0 338,40 475,120 137,80 244,187 322,320 78,133 117,279 118,438 0,116 -22,227 -67,333 -45,106 -108,200 -189,281 -81,81 -178,146 -290,193 -112,47 -235,71 -369,71zm0 -415c85,0 161,-19 228,-57 67,-38 120,-91 159,-160 39,-69 57,-151 56,-246 0,-95 -19,-178 -56,-247 -38,-69 -90,-123 -157,-160 -67,-37 -143,-56 -230,-56 -84,0 -160,19 -227,56 -67,37 -120,90 -158,160 -38,69 -57,152 -59,247 1,95 21,177 59,246 38,69 91,122 157,160 67,38 142,57 226,57z"/>
  <path id="12345" fill="#FEFEFE" fill-rule="nonzero" d="M8868 10850c-160,0 -301,-37 -426,-111 -124,-74 -222,-177 -294,-309 -72,-132 -108,-285 -108,-458 0,-124 21,-238 62,-345 41,-106 98,-199 173,-279 74,-80 162,-142 264,-187 102,-45 214,-67 336,-67 135,0 254,26 359,79 104,53 194,131 270,232l-108 110 0 -1078 479 0 0 2363 -417 0 0 -420 66 108c-51,106 -133,193 -244,260 -112,67 -249,101 -412,101zm89 -415c84,0 160,-19 226,-57 67,-38 119,-91 157,-160 38,-69 57,-151 57,-246 0,-95 -19,-177 -56,-246 -38,-69 -90,-123 -157,-160 -67,-38 -143,-56 -228,-56 -85,0 -161,19 -228,56 -67,38 -119,91 -157,160 -38,69 -57,151 -57,246 0,95 19,177 57,246 38,69 91,122 157,160 67,38 143,57 228,57z"/>
  <path id="123456" fill="#FEFEFE" fill-rule="nonzero" d="M11116 10850c-180,0 -339,-37 -476,-110 -137,-73 -243,-176 -320,-307 -77,-131 -115,-285 -115,-461 0,-128 22,-246 67,-353 44,-107 107,-200 187,-278 80,-78 175,-139 284,-182 109,-43 228,-65 358,-65 143,0 271,25 382,75 111,50 203,120 276,211 73,90 125,196 154,318 29,121 31,253 7,395l-1270 0c0,77 20,143 60,200 40,57 96,101 169,133 73,32 158,49 255,49 96,0 188,-13 276,-39 88,-26 170,-66 248,-120l159 328c-53,40 -118,76 -197,107 -79,31 -162,55 -250,72 -88,17 -173,26 -254,26zm-438 -1086l783 0c-3,-97 -37,-174 -102,-231 -65,-57 -155,-85 -269,-85 -114,0 -208,28 -283,85 -75,57 -118,134 -129,231z"/>
  <path id="1234567" fill="#FEFEFE" fill-rule="nonzero" d="M12869 10848c-148,0 -284,-20 -409,-59 -125,-39 -231,-92 -320,-160l156 -335c86,59 180,105 281,138 101,33 197,50 290,50 92,0 163,-14 213,-42 50,-28 74,-68 74,-120 0,-47 -22,-82 -66,-104 -44,-22 -130,-46 -257,-73 -219,-39 -378,-102 -479,-187 -101,-85 -151,-201 -151,-350 0,-105 30,-197 88,-277 59,-80 139,-142 242,-186 103,-44 221,-66 354,-66 131,0 255,17 372,53 116,36 216,85 299,149l-151 336c-44,-35 -94,-66 -150,-92 -56,-26 -115,-47 -177,-62 -62,-15 -123,-22 -182,-22 -80,0 -144,13 -194,40 -49,27 -74,65 -74,113 0,48 22,84 67,107 45,23 129,48 251,75 229,48 392,112 488,191 97,79 145,191 145,334 0,110 -30,207 -89,289 -60,82 -143,145 -249,191 -107,45 -231,68 -374,68z"/>
 </g>
</svg>
