<?xml version="1.0" encoding="UTF-8"?>
<!DOCTYPE svg PUBLIC "-//W3C//DTD SVG 1.1//EN" "http://www.w3.org/Graphics/SVG/1.1/DTD/svg11.dtd">
<!-- Creator: CorelDRAW X5 -->
<svg xmlns="http://www.w3.org/2000/svg" xml:space="preserve" width="145.784mm" height="32.6893mm" shape-rendering="geometricPrecision" text-rendering="geometricPrecision" image-rendering="optimizeQuality" fill-rule="evenodd" clip-rule="evenodd"
viewBox="0 0 3658 820"
 xmlns:xlink="http://www.w3.org/1999/xlink">
 <g id="Capa_x0020_1">
  <metadata id="CorelCorpID_0Corel-Layer"/>
  <path fill="#373435" fill-rule="nonzero" d="M1196 656c-35,0 -62,-10 -82,-29 -20,-20 -30,-49 -30,-88l0 -308 93 0 0 93 80 0 0 75 -80 0 0 123c0,19 4,32 12,40 8,8 18,12 32,12 7,0 14,-1 20,-2 7,-2 12,-4 18,-7l13 74c-10,5 -21,10 -34,13 -13,4 -27,5 -42,5zm-177 -258l0 -75 75 0 0 75 -75 0z"/>
  <path id="1" fill="#373435" fill-rule="nonzero" d="M1339 646l0 -323 93 0 0 40c10,-18 24,-31 40,-38 16,-8 34,-12 54,-12 7,0 13,0 19,1 6,1 11,2 17,3l-12 96c-7,-3 -14,-5 -22,-6 -8,-1 -15,-2 -23,-2 -22,0 -39,6 -53,19 -14,13 -21,30 -21,54l0 168 -93 0z"/>
  <path id="12" fill="#373435" fill-rule="nonzero" d="M1616 646l0 -323 93 0 0 323 -93 0zm47 -374c-16,0 -29,-5 -40,-15 -11,-10 -17,-23 -17,-39 0,-16 6,-30 17,-39 11,-10 25,-15 40,-15 16,0 29,5 40,15 11,10 17,23 17,39 0,16 -6,29 -17,39 -11,10 -25,15 -40,15z"/>
  <path id="123" fill="#373435" fill-rule="nonzero" d="M1800 646l0 -323 93 0 0 36c12,-16 27,-28 44,-35 17,-7 35,-11 53,-11 30,0 55,6 74,18 20,12 34,27 44,46 9,19 14,38 14,59l0 210 -93 0 0 -181c0,-20 -6,-37 -17,-49 -11,-12 -28,-18 -49,-18 -14,0 -26,3 -36,9 -10,6 -19,15 -24,25 -6,11 -9,23 -9,38l0 176 -93 0z"/>
  <path id="1234" fill="#373435" fill-rule="nonzero" d="M2362 656c-35,0 -65,-8 -92,-23 -27,-16 -48,-36 -63,-62 -15,-26 -23,-54 -23,-86 0,-23 4,-45 13,-65 9,-21 21,-39 37,-55 16,-16 35,-28 57,-38 22,-9 46,-14 71,-14 35,0 66,8 93,23 27,16 48,36 63,62 15,26 23,54 23,85 0,23 -4,44 -13,65 -9,21 -21,39 -37,55 -16,16 -35,28 -57,38 -22,9 -46,14 -72,14zm0 -81c17,0 31,-4 44,-11 13,-7 23,-18 31,-31 8,-13 11,-29 11,-48 0,-19 -4,-35 -11,-48 -7,-14 -18,-24 -31,-31 -13,-7 -28,-11 -45,-11 -16,0 -31,4 -44,11 -13,7 -23,18 -31,31 -7,14 -11,30 -11,48 0,19 4,35 12,48 7,13 18,24 31,31 13,7 28,11 44,11z"/>
  <path id="12345" fill="#373435" fill-rule="nonzero" d="M2739 656c-31,0 -59,-7 -83,-22 -24,-14 -43,-34 -57,-60 -14,-26 -21,-56 -21,-89 0,-24 4,-46 12,-67 8,-21 19,-39 34,-54 15,-16 32,-28 52,-36 20,-9 42,-13 66,-13 26,0 50,5 70,15 20,10 38,25 53,45l-21 21 0 -210 93 0 0 461 -81 0 0 -82 13 21c-10,21 -26,38 -48,51 -22,13 -49,20 -80,20zm17 -81c16,0 31,-4 44,-11 13,-7 23,-18 31,-31 7,-13 11,-29 11,-48 0,-19 -4,-35 -11,-48 -7,-13 -18,-24 -31,-31 -13,-7 -28,-11 -44,-11 -17,0 -31,4 -44,11 -13,7 -23,18 -31,31 -7,13 -11,29 -11,48 0,19 4,35 11,48 7,13 18,24 31,31 13,7 28,11 44,11z"/>
  <path id="123456" fill="#373435" fill-rule="nonzero" d="M3178 656c-35,0 -66,-7 -93,-21 -27,-14 -47,-34 -62,-60 -15,-26 -22,-56 -22,-90 0,-25 4,-48 13,-69 9,-21 21,-39 36,-54 16,-15 34,-27 55,-36 21,-8 44,-13 70,-13 28,0 53,5 74,15 22,10 40,23 54,41 14,18 24,38 30,62 6,24 6,49 1,77l-248 0c0,15 4,28 12,39 8,11 19,20 33,26 14,6 31,9 50,9 19,0 37,-3 54,-8 17,-5 33,-13 48,-23l31 64c-10,8 -23,15 -38,21 -15,6 -32,11 -49,14 -17,3 -34,5 -49,5zm-85 -212l153 0c-1,-19 -7,-34 -20,-45 -13,-11 -30,-17 -52,-17 -22,0 -41,6 -55,17 -15,11 -23,26 -25,45z"/>
  <path id="1234567" fill="#373435" fill-rule="nonzero" d="M3519 655c-29,0 -55,-4 -80,-11 -24,-8 -45,-18 -62,-31l30 -65c17,12 35,20 55,27 20,7 38,10 57,10 18,0 32,-3 41,-8 10,-5 15,-13 15,-23 0,-9 -4,-16 -13,-20 -9,-4 -25,-9 -50,-14 -43,-8 -74,-20 -93,-36 -20,-17 -29,-39 -29,-68 0,-20 6,-38 17,-54 11,-16 27,-28 47,-36 20,-9 43,-13 69,-13 26,0 50,3 73,10 23,7 42,17 58,29l-29 66c-9,-7 -18,-13 -29,-18 -11,-5 -23,-9 -35,-12 -12,-3 -24,-4 -35,-4 -16,0 -28,3 -38,8 -10,5 -14,13 -14,22 0,9 4,16 13,21 9,4 25,9 49,15 45,9 76,22 95,37 19,15 28,37 28,65 0,22 -6,40 -17,56 -12,16 -28,28 -49,37 -21,9 -45,13 -73,13z"/>
  <path fill="#EC268F" d="M182 252c-17,10 -29,26 -33,43 -5,18 -3,37 7,54l0 0 0 0c10,17 26,28 43,33 18,5 37,3 54,-7l0 0c17,-10 28,-26 33,-43 5,-18 3,-37 -7,-54l0 0c-10,-17 -26,-28 -43,-33 -18,-5 -37,-3 -54,7l0 0zm23 -197c135,-78 297,-70 421,6l-329 190c-14,-17 -33,-29 -53,-35 -25,-7 -53,-4 -77,10l0 0c-24,14 -40,36 -47,62 -7,25 -4,53 10,77l1 2 0 0c14,23 36,39 60,45 25,7 53,4 77,-10l2 -1 0 0c23,-14 39,-36 45,-60 5,-21 5,-43 -4,-63l342 -197c44,33 83,75 112,125 29,51 46,105 52,160l-342 197c-14,-17 -33,-29 -53,-35 -25,-7 -53,-4 -77,10l0 0c-24,14 -40,36 -47,62 -7,25 -4,53 10,77l1 2 0 0c14,23 36,39 60,45 25,7 53,4 77,-10l2 -1 0 0c23,-14 39,-36 45,-60 5,-20 5,-43 -4,-63l329 -190c4,146 -70,289 -205,367 -192,111 -436,49 -552,-137l452 -261c14,17 33,29 53,35 25,7 53,4 77,-10l2 -1 0 0c23,-14 39,-36 45,-60 7,-25 4,-53 -10,-77l0 0c-14,-24 -36,-41 -61,-47 -25,-7 -53,-4 -77,10l0 0c-24,14 -41,36 -47,62 -5,20 -5,43 4,63l-452 261c-103,-194 -35,-436 157,-547zm156 508c-17,10 -29,26 -33,43 -5,18 -3,37 7,54l0 0 0 0c10,17 26,28 43,33 18,5 37,3 54,-7l0 0c17,-10 28,-26 33,-43 5,-18 3,-37 -7,-54l0 0c-10,-17 -26,-28 -43,-33 -18,-5 -37,-3 -54,7l0 0zm198 -321c-17,10 -29,26 -33,43 -5,18 -3,37 7,54l0 0 0 0c10,17 26,28 43,33 18,5 37,3 54,-7l0 0c17,-10 28,-26 33,-43 5,-18 3,-37 -7,-54l0 0c-10,-17 -26,-28 -43,-33 -18,-5 -37,-3 -54,7l0 0z"/>
 </g>
</svg>
