<?xml version="1.0" encoding="UTF-8"?>
<!DOCTYPE svg PUBLIC "-//W3C//DTD SVG 1.1//EN" "http://www.w3.org/Graphics/SVG/1.1/DTD/svg11.dtd">
<!-- Creator: CorelDRAW X5 -->
<svg xmlns="http://www.w3.org/2000/svg" xml:space="preserve" width="95.717mm" height="76.4713mm" shape-rendering="geometricPrecision" text-rendering="geometricPrecision" image-rendering="optimizeQuality" fill-rule="evenodd" clip-rule="evenodd"
viewBox="0 0 8631 6896"
 xmlns:xlink="http://www.w3.org/1999/xlink">
 <g id="Capa_x0020_1">
  <metadata id="CorelCorpID_0Corel-Layer"/>
  <path fill="#EC268F" d="M3020 1431c-97,56 -162,146 -189,246 -27,100 -16,211 40,307l0 0 0 0c56,97 146,162 246,188 100,27 211,16 307,-40l0 0c97,-56 162,-146 188,-246 27,-100 16,-211 -40,-307l0 0c-56,-97 -146,-162 -246,-188 -100,-27 -211,-16 -307,40l0 0zm132 -1119c767,-443 1681,-399 2386,36l-1866 1077c-78,-99 -185,-167 -301,-198 -142,-38 -298,-22 -436,58l0 0c-137,79 -230,207 -268,349 -38,142 -22,299 58,436l6 10 1 1c80,131 204,220 342,257 142,38 298,22 436,-58l11 -6 0 0c131,-80 220,-204 257,-342 31,-116 26,-242 -21,-360l1937 -1118c251,185 469,423 635,710 166,287 263,595 298,905l-1937 1119c-78,-99 -185,-167 -301,-198 -142,-38 -298,-22 -436,58l0 0c-137,79 -230,207 -268,349 -38,142 -22,299 58,436l6 10 1 1c80,131 204,220 342,257 142,38 298,22 436,-58l11 -6 0 0c131,-80 220,-204 257,-342 31,-116 26,-242 -21,-360l1866 -1077c24,827 -395,1641 -1162,2084 -1088,628 -2472,277 -3133,-779l2565 -1481c78,99 185,167 301,198 142,38 298,22 436,-58l11 -6 0 0c131,-80 220,-204 257,-342 38,-142 22,-299 -58,-436l0 0c-79,-138 -207,-230 -349,-268 -142,-38 -298,-22 -436,58l0 0c-137,79 -230,207 -268,349 -31,116 -26,242 21,360l-2565 1481c-584,-1101 -196,-2475 892,-3103zm885 2881c-97,56 -162,146 -189,246 -27,100 -16,211 40,307l0 0 0 0c56,97 146,162 246,188 100,27 211,16 307,-40l0 0c97,-56 162,-146 188,-246 27,-100 16,-211 -40,-307l0 0c-56,-97 -146,-162 -246,-188 -100,-27 -211,-16 -307,40l0 0zm1120 -1821c-97,56 -162,146 -189,246 -27,100 -16,211 40,307l0 0 0 0c56,97 146,162 246,188 100,27 211,16 307,-40l0 0c97,-56 162,-146 188,-246 27,-100 16,-211 -40,-307l0 0c-56,-97 -146,-162 -246,-188 -100,-27 -211,-16 -307,40l0 0z"/>
  <path fill="#373435" fill-rule="nonzero" d="M605 6896c-113,0 -201,-32 -266,-96 -65,-64 -98,-160 -98,-288l0 -1004 304 0 0 303 262 0 0 244 -262 0 0 401c0,62 13,105 39,130 26,25 60,38 103,38 22,0 44,-3 65,-8 21,-5 41,-13 59,-22l43 240c-31,17 -68,32 -112,44 -43,12 -89,18 -137,18zm-578 -840l0 -244 244 0 0 244 -244 0z"/>
  <path id="1" fill="#373435" fill-rule="nonzero" d="M1071 6864l0 -1053 304 0 0 130c34,-58 78,-100 131,-125 54,-25 112,-38 175,-38 22,0 43,1 62,3 19,2 37,6 55,9l-38 314c-22,-8 -46,-15 -71,-19 -25,-5 -50,-7 -74,-7 -70,0 -128,21 -173,62 -45,41 -68,99 -68,175l0 549 -304 0z"/>
  <path id="12" fill="#373435" fill-rule="nonzero" d="M1973 6864l0 -1053 303 0 1 1053 -304 0zm152 -1219c-51,-1 -95,-17 -131,-49 -37,-32 -55,-74 -55,-127 0,-54 18,-96 55,-128 37,-32 81,-47 131,-47 51,0 95,16 131,47 37,32 55,74 55,128 0,53 -18,95 -55,127 -37,32 -81,48 -131,49z"/>
  <path id="123" fill="#373435" fill-rule="nonzero" d="M2574 6864l0 -1053 304 0 0 119c40,-53 88,-91 144,-115 55,-24 113,-35 173,-35 98,0 179,19 243,58 64,39 111,89 142,150 31,61 46,125 46,193l0 684 -304 0 0 -589c0,-67 -18,-120 -56,-160 -37,-40 -91,-59 -161,-59 -44,0 -84,10 -118,30 -34,20 -60,48 -80,83 -19,35 -29,76 -29,123l0 572 -304 0z"/>
  <path id="1234" fill="#373435" fill-rule="nonzero" d="M4406 6896c-113,0 -213,-25 -300,-76 -88,-51 -156,-119 -205,-203 -49,-84 -74,-177 -75,-279 0,-74 14,-145 43,-212 29,-67 69,-127 121,-178 52,-52 114,-92 185,-122 71,-30 148,-45 233,-45 114,0 215,25 302,76 87,51 155,119 205,203 49,85 74,178 75,278 0,74 -14,144 -43,212 -28,67 -68,127 -120,179 -52,52 -113,93 -184,123 -71,30 -149,45 -235,45zm0 -264c54,0 103,-12 145,-36 42,-24 76,-58 101,-101 25,-44 37,-96 36,-156 0,-60 -12,-113 -36,-157 -24,-44 -57,-78 -100,-101 -42,-24 -91,-35 -146,-35 -54,0 -101,12 -144,35 -43,24 -76,57 -100,101 -24,44 -37,97 -37,157 1,60 13,113 38,156 24,44 58,78 100,101 42,24 90,36 144,36z"/>
  <path id="12345" fill="#373435" fill-rule="nonzero" d="M5636 6896c-101,0 -192,-24 -270,-71 -79,-47 -141,-112 -187,-196 -46,-84 -68,-181 -68,-291 0,-79 13,-152 39,-219 26,-67 63,-127 110,-177 47,-51 103,-90 168,-119 65,-29 136,-43 214,-43 86,0 162,17 228,50 66,34 123,83 171,148l-69 70 0 -685 304 0 0 1502 -265 0 0 -267 42 69c-33,67 -84,122 -155,165 -71,43 -158,64 -262,64zm56 -264c54,0 101,-12 144,-36 42,-24 76,-58 100,-101 24,-44 37,-96 37,-156 0,-60 -12,-113 -36,-156 -24,-44 -57,-78 -100,-102 -42,-24 -91,-36 -145,-36 -54,0 -103,12 -145,36 -42,24 -76,58 -100,102 -24,44 -36,96 -36,156 0,60 12,113 36,156 24,44 58,78 100,101 42,24 91,36 145,36z"/>
  <path id="123456" fill="#373435" fill-rule="nonzero" d="M7065 6896c-115,0 -216,-23 -302,-70 -87,-47 -155,-112 -203,-195 -49,-83 -73,-181 -73,-293 0,-81 14,-156 42,-224 28,-68 68,-127 119,-177 51,-50 111,-88 180,-116 69,-27 145,-41 228,-41 91,0 172,16 243,48 71,32 129,76 176,134 47,57 79,125 98,202 18,77 20,161 5,251l-807 0c0,49 13,91 38,127 25,36 61,64 107,85 46,21 100,31 162,31 61,0 120,-8 175,-25 56,-17 108,-42 157,-76l101 209c-33,26 -75,48 -125,68 -50,20 -103,35 -159,46 -56,11 -110,16 -161,16zm-278 -690l497 0c-2,-62 -24,-111 -65,-147 -41,-36 -98,-54 -171,-54 -72,0 -132,18 -180,54 -48,36 -75,85 -82,147z"/>
  <path id="1234567" fill="#373435" fill-rule="nonzero" d="M8178 6895c-94,0 -180,-13 -260,-37 -79,-25 -147,-58 -203,-101l99 -213c55,38 114,67 178,88 64,21 125,32 185,32 58,0 104,-9 135,-27 32,-18 47,-43 47,-76 0,-30 -14,-52 -42,-66 -28,-14 -83,-30 -163,-46 -139,-25 -241,-65 -304,-119 -64,-54 -96,-128 -96,-222 0,-67 19,-125 56,-176 37,-51 88,-90 154,-119 65,-28 140,-42 225,-42 83,0 162,11 236,34 74,23 137,54 190,95l-96 214c-28,-22 -59,-42 -95,-58 -36,-17 -73,-30 -113,-39 -39,-9 -78,-14 -115,-14 -51,0 -92,8 -123,25 -31,17 -47,41 -47,72 0,31 14,53 43,68 29,15 82,31 160,48 145,31 249,71 310,121 62,50 92,121 92,212 0,70 -19,131 -57,184 -38,52 -91,92 -159,121 -68,29 -147,43 -237,43z"/>
 </g>
</svg>
