<?xml version="1.0" encoding="UTF-8"?>
<!DOCTYPE svg PUBLIC "-//W3C//DTD SVG 1.1//EN" "http://www.w3.org/Graphics/SVG/1.1/DTD/svg11.dtd">
<!-- Creator: CorelDRAW X5 -->
<svg xmlns="http://www.w3.org/2000/svg" xml:space="preserve" width="95.717mm" height="76.4713mm" shape-rendering="geometricPrecision" text-rendering="geometricPrecision" image-rendering="optimizeQuality" fill-rule="evenodd" clip-rule="evenodd"
viewBox="0 0 9395 7506"
 xmlns:xlink="http://www.w3.org/1999/xlink">
 <g id="Capa_x0020_1">
  <metadata id="CorelCorpID_0Corel-Layer"/>
  <path fill="#EC268F" d="M3287 1558c-105,61 -176,159 -205,268 -29,109 -17,229 44,335l0 0 0 0c61,105 159,176 268,205 109,29 229,17 335,-44l0 0c105,-61 176,-159 205,-268 29,-109 17,-229 -44,-335l0 0c-61,-105 -159,-176 -268,-205 -109,-29 -229,-17 -335,44l0 0zm144 -1218c835,-482 1830,-434 2597,39l-2031 1173c-85,-108 -201,-181 -328,-215 -154,-41 -325,-24 -474,63l0 0c-150,86 -250,225 -291,380 -41,154 -24,325 63,475l6 11 1 1c87,143 222,239 372,279 154,41 325,24 474,-63l12 -7 0 0c143,-87 239,-222 279,-372 34,-127 28,-264 -22,-392l2109 -1217c273,201 511,460 691,773 181,313 287,648 324,985l-2109 1217c-85,-108 -201,-181 -328,-215 -154,-41 -325,-24 -474,63l0 0c-150,86 -250,225 -291,380 -41,154 -24,325 63,475l6 11 1 1c87,143 222,239 372,279 154,41 325,24 474,-63l12 -7 0 0c143,-87 239,-222 279,-372 34,-127 28,-264 -22,-392l2031 -1173c26,900 -430,1786 -1265,2268 -1184,684 -2690,302 -3410,-848l2792 -1612c85,108 201,181 328,215 154,41 325,24 474,-63l12 -7 0 0c143,-87 239,-222 279,-372 41,-154 24,-325 -63,-475l0 0c-87,-150 -225,-250 -380,-292 -154,-41 -325,-24 -474,63l0 0c-150,86 -250,225 -291,380 -34,126 -28,264 22,391l-2792 1612c-636,-1198 -213,-2693 971,-3377zm963 3136c-105,61 -176,159 -205,268 -29,109 -17,229 44,335l0 0 0 0c61,105 159,176 268,205 109,29 229,17 335,-44l0 0c105,-61 176,-159 205,-268 29,-109 17,-229 -44,-335l0 0c-61,-105 -159,-176 -268,-205 -109,-29 -229,-17 -335,44l0 0zm1220 -1983c-105,61 -176,159 -205,268 -29,109 -17,229 44,335l0 0 0 0c61,105 159,176 268,205 109,29 229,17 335,-44l0 0c105,-61 176,-159 205,-268 29,-109 17,-229 -44,-335l0 0c-61,-105 -159,-176 -268,-205 -109,-29 -229,-17 -335,44l0 0z"/>
  <path fill="#FEFEFE" fill-rule="nonzero" d="M658 7506c-123,0 -219,-35 -290,-104 -71,-69 -106,-174 -106,-314l0 -1093 331 0 0 330 285 0 0 266 -285 0 0 437c0,67 14,115 42,142 28,27 65,41 112,41 24,0 48,-3 71,-9 23,-6 44,-14 64,-24l47 261c-34,19 -75,35 -122,48 -47,13 -97,19 -149,19zm-629 -915l0 -266 266 0 0 266 -266 0z"/>
  <path id="1" fill="#FEFEFE" fill-rule="nonzero" d="M1166 7472l0 -1146 331 0 0 142c37,-64 85,-109 143,-136 58,-27 122,-41 191,-41 24,0 47,1 67,4 20,3 40,6 60,10l-41 342c-24,-9 -50,-16 -77,-21 -27,-5 -54,-7 -81,-7 -76,0 -139,22 -188,67 -49,45 -74,108 -74,191l0 597 -331 0z"/>
  <path id="12" fill="#FEFEFE" fill-rule="nonzero" d="M2147 7472l0 -1146 330 0 1 1146 -331 0zm166 -1327c-55,-1 -103,-19 -143,-53 -40,-34 -60,-80 -60,-138 0,-58 20,-105 60,-139 40,-34 88,-51 143,-51 55,0 103,17 143,51 40,34 60,81 60,139 0,58 -20,103 -60,138 -40,34 -88,52 -143,53z"/>
  <path id="123" fill="#FEFEFE" fill-rule="nonzero" d="M2801 7472l0 -1146 331 0 0 129c44,-58 96,-99 156,-125 60,-26 123,-39 189,-39 107,0 195,21 264,63 69,42 121,96 154,163 34,67 50,137 50,210l0 745 -331 0 0 -641c0,-73 -20,-131 -61,-174 -40,-43 -99,-65 -176,-65 -48,0 -91,11 -128,32 -37,22 -66,52 -87,90 -21,39 -31,83 -31,134l0 623 -331 0z"/>
  <path id="1234" fill="#FEFEFE" fill-rule="nonzero" d="M4795 7506c-123,0 -232,-28 -327,-83 -95,-55 -170,-129 -224,-221 -54,-92 -81,-193 -82,-303 0,-81 16,-158 47,-231 31,-73 75,-138 132,-194 57,-56 124,-101 201,-133 77,-33 162,-49 253,-49 124,0 234,28 329,83 95,55 169,129 223,221 54,92 81,193 82,303 0,80 -16,157 -47,230 -31,73 -75,138 -131,194 -56,56 -123,101 -201,134 -77,33 -162,49 -255,49zm0 -287c59,0 112,-13 158,-39 46,-26 83,-63 110,-110 27,-48 40,-104 39,-170 0,-66 -13,-123 -39,-171 -26,-48 -62,-85 -109,-110 -46,-26 -99,-39 -159,-39 -58,0 -110,13 -157,39 -47,26 -83,62 -109,110 -26,48 -40,105 -40,171 1,66 14,123 41,170 26,48 63,84 109,110 46,26 98,39 157,39z"/>
  <path id="12345" fill="#FEFEFE" fill-rule="nonzero" d="M6135 7506c-110,0 -208,-26 -294,-77 -86,-51 -154,-122 -203,-214 -50,-92 -75,-197 -75,-317 0,-86 14,-165 43,-238 28,-73 68,-138 120,-193 51,-55 112,-98 183,-129 70,-31 148,-47 233,-47 93,0 176,18 248,55 72,37 134,90 187,161l-75 76 0 -746 331 0 0 1634 -288 0 0 -291 45 75c-36,73 -92,133 -169,180 -77,47 -172,70 -285,70zm61 -287c58,0 110,-13 157,-39 46,-26 82,-63 109,-110 26,-48 40,-104 40,-170 0,-66 -13,-123 -39,-170 -26,-48 -62,-85 -109,-111 -46,-26 -99,-39 -158,-39 -59,0 -112,13 -158,39 -46,26 -82,63 -109,111 -26,48 -40,104 -40,170 0,66 13,123 40,170 26,48 63,84 109,110 46,26 99,39 158,39z"/>
  <path id="123456" fill="#FEFEFE" fill-rule="nonzero" d="M7690 7506c-125,0 -235,-25 -329,-76 -95,-51 -168,-121 -221,-212 -53,-91 -79,-197 -79,-319 0,-89 16,-170 46,-244 31,-74 74,-138 129,-193 56,-54 121,-96 196,-126 75,-30 158,-45 248,-45 99,0 187,17 264,52 77,35 140,83 191,146 51,62 86,136 106,220 20,84 22,175 5,274l-879 0c0,53 14,99 42,138 28,39 67,70 117,92 50,22 109,34 176,34 67,0 130,-9 191,-27 61,-18 118,-46 171,-83l110 227c-36,28 -82,53 -136,74 -54,22 -112,38 -173,50 -61,12 -120,18 -176,18zm-303 -751l541 0c-2,-67 -26,-121 -71,-160 -45,-39 -107,-59 -186,-59 -79,0 -144,20 -196,59 -52,39 -82,93 -89,160z"/>
  <path id="1234567" fill="#FEFEFE" fill-rule="nonzero" d="M8902 7504c-102,0 -196,-14 -283,-40 -86,-27 -160,-64 -221,-110l108 -232c60,41 124,73 194,96 70,23 137,35 201,35 64,0 113,-10 147,-29 34,-19 51,-47 51,-83 0,-33 -15,-57 -46,-72 -31,-16 -90,-32 -178,-50 -151,-27 -262,-70 -331,-129 -70,-59 -104,-139 -104,-242 0,-73 20,-137 61,-192 40,-55 96,-98 167,-129 71,-31 153,-46 245,-46 91,0 177,12 257,37 81,25 149,59 207,103l-104 233c-30,-24 -65,-45 -104,-64 -39,-18 -80,-33 -123,-43 -43,-10 -85,-15 -126,-15 -55,0 -100,9 -134,28 -34,19 -51,45 -51,78 0,33 16,58 47,74 31,16 89,33 174,52 158,33 271,77 338,132 67,55 100,132 100,231 0,76 -20,143 -62,200 -41,57 -99,101 -173,132 -74,31 -160,47 -258,47z"/>
 </g>
</svg>
